<svg xmlns="http://www.w3.org/2000/svg" viewBox="0 0 468 468" id="continuous-integration"><path fill="#00d5fe" d="M332 117.708V82.567l-22.957-3.344a77.587 77.587 0 0 0-7.214-17.43l13.875-18.625L290.89 18.32l-18.599 13.894a77.31 77.31 0 0 0-17.406-7.224L251.546 2h-35.092l-3.34 22.99a77.376 77.376 0 0 0-17.406 7.224L177.11 18.32l-24.814 24.848 13.875 18.625a77.587 77.587 0 0 0-7.214 17.43L136 82.567v35.141l22.957 3.344a77.587 77.587 0 0 0 7.214 17.43l-13.875 18.625 24.814 24.848 18.599-13.894a77.31 77.31 0 0 0 17.406 7.224l3.34 22.99h35.092l3.34-22.99a77.376 77.376 0 0 0 17.406-7.224l18.599 13.894 24.814-24.848-13.875-18.625a77.54 77.54 0 0 0 7.214-17.43L332 117.708z"></path><path fill="#001445" d="M251.546 200.275h-35.092a2 2 0 0 1-1.979-1.712l-3.154-21.711a79.446 79.446 0 0 1-15.451-6.414l-17.562 13.12c-.8.596-1.911.515-2.612-.189l-24.813-24.848a2 2 0 0 1-.188-2.608l13.104-17.59a79.706 79.706 0 0 1-6.407-15.477l-21.678-3.158a2 2 0 0 1-1.712-1.979V82.567a2 2 0 0 1 1.712-1.979l21.678-3.158a79.71 79.71 0 0 1 6.407-15.477l-13.104-17.59a2 2 0 0 1 .188-2.608l24.813-24.848a2 2 0 0 1 2.612-.189l17.562 13.119a79.504 79.504 0 0 1 15.451-6.413l3.154-21.711A2 2 0 0 1 216.454 0h35.092a2 2 0 0 1 1.979 1.712l3.154 21.711a79.504 79.504 0 0 1 15.451 6.413l17.562-13.119a1.998 1.998 0 0 1 2.612.189l24.813 24.848a2 2 0 0 1 .188 2.608l-13.104 17.59a79.71 79.71 0 0 1 6.407 15.477l21.678 3.158a2 2 0 0 1 1.712 1.979v35.141a2 2 0 0 1-1.712 1.979l-21.678 3.158a79.706 79.706 0 0 1-6.407 15.477l13.104 17.59a2 2 0 0 1-.188 2.608l-24.813 24.848a1.998 1.998 0 0 1-2.612.189l-17.562-13.12a79.446 79.446 0 0 1-15.451 6.414l-3.154 21.711a2 2 0 0 1-1.979 1.714zm-33.361-4h31.631l3.091-21.277a2.001 2.001 0 0 1 1.443-1.639 75.424 75.424 0 0 0 16.955-7.038 2 2 0 0 1 2.184.138l17.21 12.857 22.369-22.4-12.843-17.239a2 2 0 0 1-.138-2.179 75.675 75.675 0 0 0 7.029-16.98 1.997 1.997 0 0 1 1.639-1.444L330 115.978V84.297l-21.245-3.095a2 2 0 0 1-1.639-1.444 75.763 75.763 0 0 0-7.029-16.98 1.998 1.998 0 0 1 .138-2.179l12.843-17.239-22.369-22.4-17.21 12.857a2 2 0 0 1-2.183.138 75.47 75.47 0 0 0-16.956-7.038 2 2 0 0 1-1.443-1.639L249.815 4h-31.631l-3.091 21.277a2.001 2.001 0 0 1-1.443 1.639 75.47 75.47 0 0 0-16.956 7.038c-.69.39-1.546.337-2.183-.138l-17.21-12.857-22.369 22.4 12.843 17.239a2 2 0 0 1 .138 2.179 75.736 75.736 0 0 0-7.029 16.98 1.997 1.997 0 0 1-1.639 1.444L138 84.297v31.681l21.245 3.095a2 2 0 0 1 1.639 1.444 75.721 75.721 0 0 0 7.029 16.98c.39.689.336 1.543-.138 2.179l-12.843 17.239 22.369 22.4 17.21-12.857a2 2 0 0 1 2.184-.138 75.424 75.424 0 0 0 16.955 7.038 2 2 0 0 1 1.443 1.639l3.092 21.278zM332 117.708h.01-.01z"></path><ellipse cx="234" cy="100.137" fill="#f5f5f5" rx="53.468" ry="52.633"></ellipse><path fill="#e3d7fe" d="M197.763 100.137c0-26.18 19.42-47.886 44.852-51.943a54.589 54.589 0 0 0-8.615-.69c-29.529 0-53.468 23.564-53.468 52.633S204.471 152.77 234 152.77c2.934 0 5.81-.242 8.615-.69-25.432-4.056-44.852-25.763-44.852-51.943z"></path><path fill="#001445" d="M254.112 123.125a1.994 1.994 0 0 1-1.456-.629l-20.112-21.356a1.996 1.996 0 0 1-.544-1.371V70.38a2 2 0 0 1 4 0v28.596l19.568 20.778c1.218 1.207.229 3.43-1.456 3.371z"></path><path fill="#001445" d="M234 154.77c-30.585 0-55.468-24.508-55.468-54.633S203.415 45.505 234 45.505s55.468 24.508 55.468 54.632S264.585 154.77 234 154.77zm0-105.265c-28.38 0-51.468 22.713-51.468 50.632S205.62 150.77 234 150.77s51.468-22.714 51.468-50.633S262.38 49.505 234 49.505z"></path><path fill="#f5f5f5" d="M196.083 371.436s-27.179 26.332-45.68 38.802c-13.64 9.194-27.632 15.939-39.34 15.939-33.861 0-61.804-25.253-66.061-57.944a67.143 67.143 0 0 1-.581-8.678c0-36.022 28.601-65.348 64.338-66.564.767-.026 1.532-.033 2.304-.058 33.55-1.078 81.303 50.586 81.299 50.582 8.866 8.717 14.589 15.106 14.876 15.427l.082-.087.277.293c-5.741 6.12-10.157 10.842-11.514 12.288zm160.854 54.733c-10.722 0-35.888-14.259-35.888-14.259-29.268-18.72-57.92-50.295-60.153-52.777a465.57 465.57 0 0 1 3.019-3.038c4.607-4.923 13.859-14.507 25.299-24.755 20.284-18.17 47.434-38.415 67.724-38.415 11.597 0 22.499 2.966 31.997 8.174 20.646 11.32 34.646 33.248 34.646 58.449a66.481 66.481 0 0 1-4.068 22.968c-9.361 25.476-33.845 43.653-62.576 43.653z"></path><path fill="#001445" d="M62.849 367.909a2 2 0 0 1-1.98-1.741 50.69 50.69 0 0 1-.447-6.612c0-27.425 21.472-49.639 48.882-50.572 1.122-.024 2.029.828 2.067 1.931a2 2 0 0 1-1.931 2.067c-25.244.859-45.019 21.317-45.019 46.574 0 1.966.136 3.96.414 6.095.164 1.185-.79 2.268-1.986 2.258z"></path><path fill="#001445" d="M99.732 390.484h-3.637c-5.815 0-10.546-4.757-10.546-10.605v-11.626l-6.541-6.586a2 2 0 0 1 0-2.818l6.541-6.586v-11.626c0-5.848 4.73-10.605 10.546-10.605h3.637a2 2 0 0 1 0 4h-3.637c-3.609 0-6.546 2.963-6.546 6.605v12.45c0 .528-.209 1.035-.581 1.409l-5.723 5.762 5.723 5.762a2 2 0 0 1 .581 1.409v12.45c0 3.642 2.937 6.605 6.546 6.605h3.637a2 2 0 0 1 0 4zm37.032 0h-3.636a2 2 0 0 1 0-4h3.636c3.609 0 6.546-2.963 6.546-6.605v-12.45c0-.528.209-1.035.581-1.409l5.723-5.762-5.723-5.762a2 2 0 0 1-.581-1.409v-12.45c0-3.642-2.937-6.605-6.546-6.605h-3.636a2 2 0 0 1 0-4h3.636c5.815 0 10.546 4.757 10.546 10.605v11.626l6.541 6.586a2 2 0 0 1 0 2.818l-6.541 6.586v11.626c0 5.848-4.731 10.605-10.546 10.605z"></path><ellipse cx="116.43" cy="360.258" fill="#001445" rx="4.985" ry="5.02"></ellipse><ellipse cx="99.338" cy="360.258" fill="#001445" rx="3.561" ry="3.586"></ellipse><ellipse cx="133.521" cy="360.258" fill="#001445" rx="3.561" ry="3.586"></ellipse><path fill="#001445" d="M359.774 407.92a48.3 48.3 0 0 1-21.12-4.844 182.372 182.372 0 0 1-9.296-4.851 2 2 0 1 1 1.957-3.489 179.114 179.114 0 0 0 9.089 4.743c10.966 5.336 23.803 5.891 35.219 1.522 11.309-4.327 20.021-12.808 24.532-23.88.203-.497.396-.999.583-1.505.863-2.449 4.686-1.038 3.754 1.383a53.39 53.39 0 0 1-.632 1.631c-4.935 12.108-14.455 21.38-26.809 26.107a48.34 48.34 0 0 1-17.277 3.183z"></path><path fill="#90d628" d="M263.915 356.683c4.607-4.923 13.859-14.507 25.299-24.755l13.053-30.727-33.502-3.744c-12.312 10.594-23.598 22.352-20.28 19.328-4.983 4.512-47.629 50.144-52.401 55.231 0 0-27.179 26.332-45.68 38.802l30.269 5.481-10.114 28.4c8.955-5.882 18.288-12.982 28.043-21.336 14.495-12.413 26.626-24.774 33.083-31.611l20.447-22.879a432.228 432.228 0 0 1 11.783-12.19z"></path><path fill="#6ca42e" d="m298.571 309.311-19.366 14.895a430.058 430.058 0 0 0-23.909 23.535 444.68 444.68 0 0 0-11.968 12.386l-20.482 22.916c-5.232 5.535-15.162 15.704-27.198 26.384l-17.817 14.257-7.274 20.426c8.955-5.882 18.287-12.982 28.043-21.336 14.494-12.413 26.626-24.774 33.083-31.611l20.447-22.879c2.475-2.67 6.555-6.98 11.785-12.191a414.394 414.394 0 0 1 15.238-15.414l12.352-14.734 7.066-16.634z"></path><path fill="#fc09b2" d="M108.758 293.571c.767-.026 1.532-.058 2.305-.058 25.309 0 61.296 31.501 81.31 51.181l-9.45-30.88 33.977-.223c-5.377-5.19-11.577-10.927-18.299-16.684-33.62-28.791-62.254-42.788-87.538-42.788-4.11 0-8.163.243-12.152.7l-21.186 25.588 31.033 13.164z"></path><path fill="#bd0a94" d="M110.429 265.531c22.298 0 48.379 13.052 79.732 39.902a377.71 377.71 0 0 1 8.695 7.687l18.043-.119c-5.377-5.19-11.577-10.927-18.299-16.684-33.62-28.791-62.254-42.788-87.538-42.788-4.11 0-8.162.243-12.152.7l-11.774 14.22a94.032 94.032 0 0 1 23.293-2.918z"></path><path fill="#ffce03" d="M45.001 368.813a67.143 67.143 0 0 1-.581-8.678c0-36.022 28.602-65.348 64.338-66.564l-31.034-13.163L98.91 254.82c-52.773 6.047-93.896 50.967-93.896 105.316 0 7.29.741 14.41 2.149 21.29l28.248 18.785 9.59-31.398z"></path><path fill="#feac01" d="M16.381 359.547c0-43.806 30.126-80.709 70.755-91.096l11.774-14.22c-52.773 6.047-93.897 50.967-93.897 105.316 0 7.29.741 14.41 2.149 21.29l14.44 9.603a93.595 93.595 0 0 1-5.221-30.893z"></path><path fill="#fc09b2" d="M150.403 410.818c-13.64 9.194-27.632 15.939-39.34 15.939-33.861 0-61.804-25.253-66.061-57.944l-9.59 31.397-28.249-18.785c9.886 48.289 52.716 84.726 103.9 84.726 17.947 0 37.586-7.061 59.495-21.452l10.114-28.4-30.269-5.481z"></path><path fill="#bd0a94" d="m21.603 390.44-14.44-9.603c9.886 48.289 52.716 84.726 103.899 84.726 17.948 0 37.586-7.061 59.495-21.452l7.262-20.39c-25.942 20.05-48.085 29.841-67.39 29.841-41.037 0-76.013-26.412-88.826-63.122z"></path><path fill="#fc09b2" d="M289.214 331.928c20.284-18.17 47.434-38.415 67.724-38.415 11.597 0 22.499 2.966 31.997 8.174l29.735-1.604-6.734-30.563c-16.046-9.769-34.876-15.401-54.998-15.401-25.284 0-53.917 13.996-87.538 42.788-.215.184-.422.367-.636.55l33.502 3.744-13.052 30.727z"></path><path fill="#bd0a94" d="M356.937 292.924c11.597 0 22.499 2.966 31.997 8.174l17.115-.923c-7.575-6.398-14.499-11.236-14.499-11.236a78.839 78.839 0 0 0-34.612-8.016c-11.116 0-24.158 4.521-39 13.492l-19.453 15.1-6.583 15.497 4.705-.109c19.161-16.199 42.417-31.979 60.33-31.979z"></path><path fill="#ffce03" d="m411.935 269.52 6.734 30.563-29.735 1.604c20.646 11.32 34.645 33.247 34.645 58.448a66.458 66.458 0 0 1-4.068 22.968l6.163 28.354 29.635-11.735c4.946-12.238 7.676-25.599 7.676-39.587.001-38.342-20.466-71.995-51.05-90.615z"></path><path fill="#feac01" d="M435.58 359.547c0-.737-.01-1.473-.031-2.207-.608-21.736-11.344-41.948-28.521-55.283l-2.33-1.809-11.615.627.77 3.215c17.915 11.942 29.726 32.316 29.726 55.457a66.481 66.481 0 0 1-4.068 22.968l3.665 16.861 8.77-16.151a78.388 78.388 0 0 0 3.634-23.678z"></path><path fill="#90d628" d="m419.512 383.103 6.163 28.354 29.635-11.735c-15.722 38.905-53.89 66.429-98.373 66.429-17.302 0-36.175-6.558-57.139-19.923l-7.934-30.453 29.184-2.689c12.528 8.013 25.166 13.671 35.888 13.671 28.732 0 53.216-18.177 62.576-43.654z"></path><path fill="#6ca42e" d="M356.937 438.17c.784 0 1.565-.012 2.345-.035 25.042-.752 47.984-14.229 61.683-35.206l2.239-3.428-2.695-12.397-3.083.426c-10.578 22.813-33.682 38.639-60.488 38.639-10.722 0-23.36-5.658-35.888-13.671L304.737 414l13.396 10.817c14.839 8.979 27.564 13.353 38.804 13.353z"></path><path fill="#ffce03" d="M321.049 412.497c-30.479-19.495-60.309-52.951-60.309-52.951l-26.561-28.612.186-.198a473.225 473.225 0 0 0-9.8-10.158l-.004-.004a504.848 504.848 0 0 0-7.673-7.573l-33.966.223 9.45 30.88-.01-.01c8.866 8.717 14.589 15.106 14.876 15.427l.082-.087c11.089 11.7 26.68 29.255 26.68 29.255 5.51 5.943 18.934 19.985 35.4 34.086 10.613 9.089 20.728 16.699 30.399 22.864l-7.934-30.453 29.184-2.689z"></path><path fill="#feac01" d="m220.491 330.505.071.071.004.004c4.168 4.2 7.578 7.777 9.8 10.158l-.186.198 26.561 28.612s22.351 25.06 48.124 44.441l16.185-1.491c-30.479-19.495-60.309-52.951-60.309-52.951l-26.561-28.612.186-.198a473.225 473.225 0 0 0-9.8-10.158l-.004-.004a514.337 514.337 0 0 0-7.673-7.573l-16.547.109 5.358 4.224a163.209 163.209 0 0 1 14.791 13.17z"></path><path fill="#001445" d="M332.063 377.654c-.432 0-.865-.139-1.231-.425l-21.496-16.819c-1.013-.751-1.013-2.399 0-3.15l21.496-16.819c2.02-1.629 4.532 1.582 2.465 3.15l-19.483 15.244 19.483 15.244c1.507 1.094.59 3.644-1.234 3.575zm39.014 0c-1.824.069-2.74-2.481-1.233-3.575l19.483-15.244-19.483-15.244a2.001 2.001 0 0 1 2.465-3.151l21.496 16.819c1.013.751 1.013 2.399 0 3.15l-21.496 16.819c-.367.288-.8.426-1.232.426zm-23.288.111c-1.261.014-2.245-1.206-1.954-2.437l7.566-33.858a2.001 2.001 0 0 1 3.905.872L349.74 376.2a2.003 2.003 0 0 1-1.951 1.565z"></path><path fill="#001445" d="M412.975 267.223a107.715 107.715 0 0 0-56.037-15.692c-25.774-.122-55.748 14.685-89.477 43.82-15.933 13.933-19.214 18.118-33.088 32.474-3.727-3.983-11.294-11.658-16.054-16.223-36.003-35.432-81.347-66.287-119.636-59.359-62.254 6.435-106.585 67.88-93.479 128.995 10.241 50.02 54.761 86.325 105.858 86.325 18.46 0 38.28-7.125 60.593-21.78 19.035-11.751 50.822-41.176 62.323-54.185 11.198 12.715 45.605 44.508 64.745 55.729 21.36 13.617 40.402 20.237 58.214 20.237 21.933 0 43.063-6.563 61.105-18.978 17.616-12.122 31.145-28.963 39.121-48.702 5.189-12.841 7.821-26.412 7.821-40.337.001-37.983-19.442-72.497-52.009-92.324zm48.01 92.324c0 13.123-2.427 25.918-7.213 38.045l-26.644 10.55-5.54-25.488c10.679-28.784-.635-63.102-26.125-79.905l23.313-1.258c1.199-.036 2.13-1.264 1.846-2.428l-5.695-25.844c28.93 19.423 46.058 51.348 46.058 86.328zm-138.859 51.266c-26.577-16.999-52.992-45.071-58.751-51.342.632-.638 1.277-1.286 1.952-1.959l.048-.051c4.495-4.803 13.741-14.39 25.168-24.627l.005-.004c19.303-17.292 46.489-37.905 66.389-37.905 10.845 0 21.576 2.741 31.035 7.928 27.719 14.721 40.808 49.696 29.662 78.972-9.306 25.328-33.697 42.344-60.697 42.344-9.242 0-20.955-4.494-34.811-13.356zm34.812-155.282c18.78 0 37.165 5.069 53.229 14.67l6.044 27.423-26.819 1.447c-9.922-5.331-21.131-8.147-32.454-8.147-18.915 0-43.346 16.907-62.476 33.177l9.646-22.707c.54-1.182-.325-2.66-1.619-2.77l-28.905-3.23c31.993-26.815 59.287-39.863 83.354-39.863zm-107.169 62.201c3.084-3.717 10.357-10.58 19.641-18.779l29.967 3.349-11.829 27.846c-12.902 11.587-20.475 19.822-26.884 26.376l-23.741-25.573c7.12-7.488 11.427-11.92 12.846-13.219zM99.935 256.13c35.325-5.993 77.055 21.37 112.008 54.905l-29.034.191c-1.298-.026-2.314 1.354-1.899 2.585l7.187 23.486c-21.262-19.885-53.941-47.427-79.065-46.328l-28.154-11.942 18.957-22.897zm91.035 89.402c6.509 6.398 11.407 11.64 13.546 13.969-12.55 13.678-62.942 64.985-93.453 64.668-32.358 0-59.906-24.162-64.077-56.203-5.173-37.606 23.861-71.987 61.841-72.985 26.162-1.426 62.079 31.129 82.143 50.551zM7.015 359.547c0-51.179 37.088-94.429 87.072-102.626l-17.902 21.623c-.856.978-.45 2.642.759 3.117l23.725 10.063c-35.713 4.701-62.981 40.531-57.704 76.326l-8.681 28.419L8.961 379.63a104.419 104.419 0 0 1-1.946-20.083zm161.884 83.259c-21.409 13.965-40.335 20.757-57.837 20.757-47.539 0-89.167-32.633-100.826-78.28l24.067 16.004c1.069.725 2.673.18 3.021-1.081l7.235-23.684c7.629 29.948 34.906 51.647 66.503 51.647 10.665 0 24.046-5.324 39.782-15.827l27.152 4.917-9.097 25.547zm5.59-3.773 8.066-22.651c.429-1.118-.344-2.454-1.527-2.639l-25.556-4.628c28.978-22.466 39.061-33.193 51.853-46.76 8.944 9.508 20.215 22.096 23.943 26.275 0 0-34.864 37.03-56.779 50.403zm96.211-17.777c-16.561-14.183-30.157-28.45-35.205-33.895-4.668-5.294-27.246-30.496-41.359-44.327l-8.516-27.827 30.465-.2c4.658 4.467 12.915 12.887 16.145 16.375 29.696 30.688 31.331 40.248 82.985 79.645l-23.534 2.168c-1.196.082-2.081 1.344-1.752 2.496l6.626 25.431c-8.253-5.558-16.93-12.223-25.855-19.866zm86.238 42.307c-16.845 0-34.974-6.279-55.401-19.189l-7.143-27.412 26.159-2.409c14.261 9.036 26.5 13.617 36.385 13.617 26.518 0 50.666-15.458 61.961-39.061l4.822 22.185c.224 1.183 1.588 1.888 2.69 1.435l25.159-9.962c-16.954 37.091-53.593 60.796-94.632 60.796zM111.354 99.461l-21.315-9.895a2 2 0 0 0-1.683 3.628l14.357 6.665c-10.183 1.418-19.855 5.578-27.826 12.078-22.812 18.601-35.895 46.131-35.895 75.533 0 19.259 5.611 37.88 16.226 53.851 1.501 2.168 4.748-.006 3.332-2.214-10.178-15.313-15.558-33.169-15.558-51.637 0-28.195 12.546-54.596 34.422-72.433 8.124-6.623 18.149-10.64 28.621-11.536l-11.3 13.471c-1.695 1.962 1.421 4.584 3.064 2.57l14.066-16.769c.922-1.369.089-3.03-.511-3.312z"></path><path fill="#feac01" d="M31.445 115.738c0-2.009-4.448-3.704-10.549-4.253-.548-6.101-2.244-10.55-4.252-10.55-2.009 0-3.704 4.449-4.252 10.55-6.101.548-10.549 2.244-10.549 4.253s4.449 3.704 10.549 4.253c.548 6.101 2.244 10.55 4.252 10.55 2.008 0 3.704-4.449 4.252-10.55 6.101-.549 10.549-2.244 10.549-4.253z"></path><path fill="#fb09b1" d="M253.542 453.197c0-2.009-4.449-3.704-10.549-4.253-.548-6.101-2.244-10.55-4.252-10.55-2.008 0-3.704 4.449-4.252 10.55-6.101.548-10.549 2.244-10.549 4.253s4.448 3.704 10.549 4.253c.548 6.101 2.244 10.55 4.252 10.55 2.009 0 3.704-4.449 4.252-10.55 6.101-.549 10.549-2.244 10.549-4.253z"></path><path fill="#ffce03" d="M372.366 39.283c-9.9-10.289-26.371-10.417-36.937-.813l-.11.1a6.986 6.986 0 1 0 9.397 10.339l.223-.203c4.998-4.543 12.852-4.542 17.472.385 4.683 4.994 4.356 12.835-.691 17.423l-.549.499a6.986 6.986 0 1 0 9.398 10.338l.549-.499c10.879-9.887 11.51-26.904 1.248-37.569z"></path><path fill="#fd4cc8" d="m87.864 174.308 10.004-18.102 10.004 18.102 18.292 9.899-18.292 9.9-10.004 18.102-10.004-18.102-18.292-9.9z"></path><path fill="#001445" d="m96.118 213.176-9.722-17.589-17.777-9.621c-1.397-.756-1.397-2.762 0-3.518l17.777-9.621 9.722-17.589c1.392-1.537 2.475-.98 3.5 0l9.721 17.589 17.777 9.621c1.397.756 1.397 2.762 0 3.518l-17.777 9.621-9.721 17.589c-.698.952-2.932.904-3.5 0zm-22.345-28.968 15.042 8.141a2 2 0 0 1 .798.792l8.255 14.934 8.254-14.934c.185-.335.462-.609.798-.792l15.042-8.141-15.042-8.141a2 2 0 0 1-.798-.792l-8.254-14.934-8.255 14.934a2.007 2.007 0 0 1-.798.792l-15.042 8.141zm14.09-9.9h.01-.01z"></path><path fill="#fff" d="m149.266 217.994 6.832-12.283 6.832 12.283 12.491 6.718-12.491 6.718-6.832 12.283-6.832-12.283-12.491-6.718z"></path><path fill="#001445" d="m154.35 244.685-6.546-11.771-11.977-6.44c-1.384-.688-1.384-2.835 0-3.522l11.977-6.441 6.546-11.771c.698-1.351 2.798-1.351 3.496 0l6.547 11.771 11.976 6.441c1.384.688 1.384 2.835 0 3.522l-11.976 6.44-6.547 11.771c-.763 1.371-2.734 1.371-3.496 0zm-13.353-19.973 9.217 4.957c.337.181.614.455.801.789l5.083 9.14 5.084-9.14c.187-.334.464-.608.801-.789l9.216-4.957-9.216-4.957a2.007 2.007 0 0 1-.801-.789l-5.084-9.14-5.083 9.14a2.007 2.007 0 0 1-.801.789l-9.217 4.957zm8.27-6.718h.01-.01z"></path><path fill="#915efd" d="M442.29 62.881c12.518-6.868 16.945-22.733 10.435-35.441l-.068-.133a6.986 6.986 0 0 0-12.436 6.37l.138.269c3.079 6.011 1.026 13.592-4.936 16.765-6.044 3.216-13.527.851-16.637-5.22l-.338-.66a6.985 6.985 0 0 0-9.403-3.032 6.985 6.985 0 0 0-3.032 9.402l.338.66c6.702 13.085 22.964 18.139 35.939 11.02z"></path><path fill="#001445" d="M359.222 78.227c-3.545-3.73-2.908-10.098 1.153-13.192 4.195-3.655 4.471-10.597.578-14.574-3.799-4.05-10.378-4.172-14.668-.273-3.635 3.522-9.517 3.353-12.917-.402-3.333-3.667-3.062-9.362.605-12.694l.111-.102c11.425-10.386 29.244-9.979 39.722.907 10.805 10.736 10.565 30.689-1.342 40.437-5.89 4.815-11.535 1.777-13.242-.107zm4.649-30.503c5.413 5.531 5.028 15.188-.805 20.271-2.405 1.711-2.966 5.354-.885 7.542 1.981 2.279 5.655 2.068 7.593-.164 9.997-8.7 10.552-25.352 1.149-34.703-8.988-9.342-24.31-9.665-34.149-.719l-.112.102a4.99 4.99 0 0 0-.334 7.042c1.921 2.127 4.991 1.859 7.266.134 9.193-6.974 17.549-2.415 20.277.495zM429.735 68.126c-10.421.058-20.503-5.998-25.165-15.353-2.713-4.326-1.068-10.511 3.563-12.754 4.665-2.416 10.384-.232 12.434 4.562 2.432 5.003 9.061 7.083 13.917 4.365 4.901-2.608 6.739-8.927 4.096-14.087-2.45-4.428-.75-10.062 3.763-12.363 4.456-2.285 9.952-.461 12.162 4.03 7.043 13.749 1.994 30.843-11.252 38.11-4.222 2.315-8.846 3.49-13.518 3.49zm-19.778-24.547c-2.718 1.316-3.475 4.923-1.826 7.371 5.785 11.924 21.715 16.808 33.197 10.178 11.366-6.236 15.681-20.939 9.617-32.776-1.131-2.494-4.366-3.598-6.778-2.297-2.524 1.223-3.477 4.591-2.028 6.979 3.634 7.094 1.042 15.815-5.776 19.443-6.521 3.666-16.508 1.039-19.356-6.073-1.571-4.298-6.324-3.196-7.05-2.825z"></path><path fill="#f5f5f5" d="M86.787 23.422c-.996 0-1.974.075-2.933.206C79.66 11.424 68.034 2.644 54.337 2.644c-13.635 0-25.22 8.7-29.461 20.818-.37-.019-.739-.041-1.114-.041-11.94 0-21.62 9.676-21.62 21.613s9.68 21.613 21.62 21.613h63.025c11.94 0 21.62-9.676 21.62-21.613s-9.679-21.612-21.62-21.612z"></path><path fill="#e3d7fe" d="M33.762 33.422c.375 0 .744.022 1.114.041 4.241-12.118 15.826-20.819 29.461-20.819a31.148 31.148 0 0 1 16.528 4.719C75.369 8.532 65.55 2.644 54.337 2.644c-13.635 0-25.22 8.7-29.461 20.819-.37-.019-.739-.041-1.114-.041-11.94 0-21.62 9.676-21.62 21.613 0 8.55 4.979 15.919 12.187 19.424a21.474 21.474 0 0 1-2.187-9.424c0-11.937 9.68-21.613 21.62-21.613z"></path><path fill="#001445" d="M86.787 68.647H23.762c-13.024 0-23.62-10.593-23.62-23.613 0-12.935 10.457-23.474 23.364-23.611C28.513 8.935 40.72.644 54.337.644c13.657 0 25.859 8.309 30.853 20.835.54-.039 1.074-.058 1.598-.058 13.024 0 23.62 10.593 23.62 23.613S99.812 68.647 86.787 68.647zM23.762 25.421c-10.818 0-19.62 8.798-19.62 19.613s8.802 19.613 19.62 19.613h63.025c10.818 0 19.62-8.798 19.62-19.613.088-11.758-10.636-21.119-22.28-19.425a1.993 1.993 0 0 1-2.164-1.332C77.927 12.534 66.825 4.644 54.337 4.644c-12.415 0-23.495 7.828-27.573 19.479-.423 1.312-1.826 1.432-3.002 1.298z"></path><ellipse cx="46.989" cy="35.704" fill="#001445" rx="5.224" ry="5.715"></ellipse><ellipse cx="45.422" cy="33.989" fill="#fff" rx="1.567" ry="1.714"></ellipse><ellipse cx="49.079" cy="37.989" fill="#fff" rx=".784" ry=".857"></ellipse><ellipse cx="79.56" cy="35.704" fill="#001445" rx="5.224" ry="5.715"></ellipse><ellipse cx="81.127" cy="33.989" fill="#fff" rx="1.567" ry="1.714"></ellipse><ellipse cx="77.471" cy="37.989" fill="#fff" rx=".784" ry=".857"></ellipse><path fill="#001445" d="M63.274 59.067c-4.004 0-7.262-3.243-7.262-7.23v-1.374a1.5 1.5 0 1 1 3 0v1.374c0 2.333 1.912 4.23 4.262 4.23s4.262-1.897 4.262-4.23v-1.374a1.5 1.5 0 1 1 3 0v1.374c0 3.987-3.258 7.23-7.262 7.23z"></path><g fill="#fc09b2"><ellipse cx="46.627" cy="50.052" rx="4.439" ry="2.759"></ellipse><ellipse cx="79.922" cy="50.052" rx="4.439" ry="2.759"></ellipse></g><path fill="#f5f5f5" d="M444.238 148.061c-.996 0-1.974.075-2.933.206-4.194-12.204-15.821-20.984-29.517-20.984-13.635 0-25.22 8.7-29.461 20.818-.37-.019-.739-.041-1.114-.041-11.94 0-21.62 9.676-21.62 21.613 0 11.936 9.68 21.613 21.62 21.613h63.025c11.94 0 21.62-9.676 21.62-21.613 0-11.935-9.68-21.612-21.62-21.612z"></path><path fill="#e3d7fe" d="M391.213 158.061c.375 0 .744.022 1.114.041 4.242-12.118 15.826-20.818 29.461-20.818a31.148 31.148 0 0 1 16.528 4.719c-5.496-8.83-15.315-14.719-26.528-14.719-13.635 0-25.219 8.7-29.461 20.818-.37-.019-.739-.041-1.114-.041-11.94 0-21.62 9.676-21.62 21.613 0 8.55 4.979 15.919 12.187 19.424a21.474 21.474 0 0 1-2.187-9.424c0-11.936 9.679-21.613 21.62-21.613z"></path><path fill="#001445" d="M444.238 146.062c-.523 0-1.058.019-1.598.057-4.993-12.526-17.194-20.835-30.853-20.835-2.605 0-5.157.308-7.618.887a92.62 92.62 0 0 0-18.278-14.972c-9.585-5.994-20.867-9.162-32.627-9.162a2 2 0 0 0 0 4c11.009 0 21.558 2.958 30.506 8.554a88.724 88.724 0 0 1 16.108 12.904c-8.487 3.252-15.444 9.893-18.922 18.569-12.906.138-23.364 10.677-23.364 23.611 0 13.02 10.596 23.613 23.62 23.613h43.674c-.719 14.798-5.113 29.002-12.856 41.563l-1.435-16.353a1.996 1.996 0 0 0-2.167-1.817 1.998 1.998 0 0 0-1.817 2.167l1.937 22.081c.078 1.275 1.495 2.174 2.68 1.704l22.068-8.076a2 2 0 0 0-1.375-3.757l-16.394 5.999c8.076-13.156 12.642-28.026 13.362-43.512h15.349c13.024 0 23.62-10.593 23.62-23.613s-10.595-23.612-23.62-23.612zm0 43.225h-63.025c-10.818 0-19.62-8.798-19.62-19.613s8.802-19.612 19.62-19.612c.34 0 .675.02 1.012.038.868.035 1.696-.5 1.99-1.337 4.078-11.651 15.158-19.479 27.573-19.479 12.488 0 23.59 7.89 27.625 19.634a1.992 1.992 0 0 0 2.163 1.332c11.646-1.693 22.37 7.665 22.282 19.425 0 10.813-8.801 19.612-19.62 19.612z"></path><ellipse cx="388.44" cy="160.344" fill="#001445" rx="5.224" ry="5.715"></ellipse><ellipse cx="386.873" cy="158.629" fill="#fff" rx="1.567" ry="1.714"></ellipse><ellipse cx="390.529" cy="162.629" fill="#fff" rx=".784" ry=".857"></ellipse><ellipse cx="421.011" cy="160.344" fill="#001445" rx="5.224" ry="5.715"></ellipse><ellipse cx="422.578" cy="158.629" fill="#fff" rx="1.567" ry="1.714"></ellipse><ellipse cx="418.922" cy="162.629" fill="#fff" rx=".784" ry=".857"></ellipse><path fill="#001445" d="M404.726 183.707c-4.004 0-7.262-3.243-7.262-7.23v-1.374a1.5 1.5 0 1 1 3 0v1.374c0 2.333 1.912 4.23 4.262 4.23s4.262-1.897 4.262-4.23v-1.374a1.5 1.5 0 1 1 3 0v1.374c-.001 3.987-3.259 7.23-7.262 7.23z"></path><g fill="#fc09b2"><ellipse cx="388.078" cy="174.692" rx="4.439" ry="2.759"></ellipse><ellipse cx="421.373" cy="174.692" rx="4.439" ry="2.759"></ellipse></g></svg>