<svg xmlns="http://www.w3.org/2000/svg" viewBox="0 0 512 512" id="help"><path d="M376 36H136c-27.57 0-50 22.43-50 50v340c0 27.57 22.43 50 50 50h240c27.57 0 50-22.43 50-50V86c0-27.57-22.43-50-50-50z"></path><path d="M486 401.294C486 348.749 441.141 306 386 306s-100 42.749-100 95.294c0 1.451.042 2.931.128 4.564a91.711 91.711 0 0 0-.128 4.848C286 463.251 330.859 506 386 506s100-42.749 100-95.294c0-1.626-.044-3.242-.128-4.848.086-1.633.128-3.113.128-4.564z"></path><linearGradient id="a" x1="256" x2="256" y1="448.857" y2="61.096" gradientUnits="userSpaceOnUse"><stop offset=".006" stop-color="#d1d7db"></stop><stop offset=".047" stop-color="#dadfe2"></stop><stop offset=".155" stop-color="#ebedef"></stop><stop offset=".289" stop-color="#f6f7f8"></stop><stop offset=".477" stop-color="#fdfdfe"></stop><stop offset="1" stop-color="#fff"></stop></linearGradient><path fill="url(#a)" d="M376 56H136c-16.5 0-30 13.5-30 30v340c0 16.5 13.5 30 30 30h240c16.5 0 30-13.5 30-30V86c0-16.5-13.5-30-30-30z"></path><linearGradient id="b" x1="256" x2="256" y1="-8.461" y2="636.422" gradientUnits="userSpaceOnUse"><stop offset=".006" stop-color="#d1d7db"></stop><stop offset=".047" stop-color="#dadfe2"></stop><stop offset=".155" stop-color="#ebedef"></stop><stop offset=".289" stop-color="#f6f7f8"></stop><stop offset=".477" stop-color="#fdfdfe"></stop><stop offset="1" stop-color="#fff"></stop></linearGradient><path fill="url(#b)" d="M376 76H136c-5.421 0-10 4.579-10 10v340c0 5.421 4.579 10 10 10h240c5.421 0 10-4.579 10-10V86c0-5.421-4.579-10-10-10z"></path><path d="M156 120.972h9.801c6.545 0 10.186 2.661 10.186 7.946v.14c0 3.57-1.89 5.566-4.516 6.581L177.458 146h-7.561l-5.075-8.961h-1.68V146H156v-25.028zm9.451 11.412c2.415 0 3.605-1.015 3.605-3.045v-.14c0-2.03-1.26-2.835-3.57-2.835h-2.345v6.021h2.31zm12.529 4.69v-.28c0-5.88 4.375-9.591 9.906-9.591 5.005 0 9.311 2.87 9.311 9.451v1.646h-12.881c.175 2.415 1.575 3.815 3.815 3.815 2.065 0 2.94-.945 3.185-2.17h5.881c-.56 4.13-3.746 6.476-9.276 6.476-5.74-.001-9.941-3.361-9.941-9.347zm13.126-2.31c-.105-2.205-1.19-3.43-3.22-3.43-1.89 0-3.186 1.225-3.5 3.43h6.72zm7.908 6.16c0-4.305 3.64-5.985 9.731-5.985h1.75v-.42c0-1.75-.42-2.905-2.415-2.905-1.715 0-2.345 1.015-2.485 2.17h-5.88c.28-4.411 3.745-6.581 8.75-6.581 5.041 0 8.261 2.065 8.261 6.931V146h-6.091v-2.135c-.875 1.33-2.485 2.555-5.425 2.555-3.291 0-6.196-1.61-6.196-5.496zm11.481-1.33v-1.12h-1.645c-2.52 0-3.64.49-3.64 1.995 0 1.05.7 1.715 2.17 1.715 1.785.001 3.115-1.015 3.115-2.59zm8.889-2.555v-.28c0-6.23 3.43-9.556 7.771-9.556 2.87 0 4.585 1.225 5.635 3.08v-10.641h6.266V146h-6.266v-2.975c-.909 1.89-2.939 3.395-5.705 3.395-4.235 0-7.701-3.045-7.701-9.381zm13.582-.105v-.28c0-3.08-1.296-4.725-3.605-4.725-2.346 0-3.605 1.575-3.605 4.76v.28c0 3.08 1.365 4.655 3.535 4.655 2.274.001 3.675-1.575 3.675-4.69zm17.253-15.962h9.346l4.796 13.336 4.796-13.336h9.171V146h-7.141v-15.577L265.061 146h-2.38l-6.056-15.577V146h-6.406v-25.028zm31.255 16.102v-.28c0-5.88 4.376-9.591 9.906-9.591 5.006 0 9.311 2.87 9.311 9.451v1.646H287.81c.175 2.415 1.575 3.815 3.815 3.815 2.065 0 2.94-.945 3.186-2.17h5.88c-.56 4.13-3.745 6.476-9.275 6.476-5.742-.001-9.942-3.361-9.942-9.347zm13.126-2.31c-.104-2.205-1.189-3.43-3.22-3.43-1.891 0-3.186 1.225-3.501 3.43h6.721z"></path><linearGradient id="c" x1="346" x2="346" y1="308.209" y2="503.457" gradientUnits="userSpaceOnUse"><stop offset="0" stop-color="#064476" stop-opacity="0"></stop><stop offset=".316" stop-color="#053b67" stop-opacity=".121"></stop><stop offset=".921" stop-color="#032440" stop-opacity=".353"></stop><stop offset="1" stop-color="#03213a" stop-opacity=".383"></stop></linearGradient><path fill="url(#c)" d="M386 306c-55.141 0-100 42.749-100 95.294 0 1.451.042 2.931.128 4.564a91.711 91.711 0 0 0-.128 4.848c0 16.383 4.362 31.814 12.036 45.294H376c16.5 0 30-13.5 30-30V307.916A104.88 104.88 0 0 0 386 306z"></path><linearGradient id="d" x1="305.336" x2="463.296" y1="371" y2="371" gradientUnits="userSpaceOnUse"><stop offset="0" stop-color="#003468"></stop><stop offset=".5" stop-color="#35b7da"></stop><stop offset="1" stop-color="#003468"></stop></linearGradient><path fill="url(#d)" d="M466 401.294C466 359.71 430.183 326 386 326s-80 33.71-80 75.294V416h160v-14.706z"></path><linearGradient id="e" x1="386" x2="386" y1="335.412" y2="480.498" gradientUnits="userSpaceOnUse"><stop offset="0" stop-color="#32b0d5"></stop><stop offset=".437" stop-color="#2084af"></stop><stop offset="1" stop-color="#0b5081"></stop></linearGradient><ellipse cx="386" cy="410.706" fill="url(#e)" rx="80" ry="75.294"></ellipse><path fill="#3EBEDB" d="M386 339.412c43.47 0 78.816 32.638 79.946 73.294.018-.667.054-1.329.054-2 0-41.584-35.817-75.294-80-75.294s-80 33.711-80 75.294c0 .671.035 1.333.054 2 1.13-40.656 36.476-73.294 79.946-73.294z"></path><path fill="#FFF" d="M396 366v2.572L390.718 426h-9.438L376 368.572V366zM376 436h20v20h-20z"></path><path fill="#D1D7DB" d="M156 176h100v10H156z"></path><path fill="#FFF" d="M156 186h100v10H156z"></path><path fill="#D1D7DB" d="M156 216h200v10H156z"></path><path fill="#FFF" d="M156 226h200v10H156z"></path><path fill="#D1D7DB" d="M156 256h200v10H156z"></path><path fill="#FFF" d="M156 266h200v10H156z"></path><path fill="#D1D7DB" d="M156 296h200v10H156z"></path><path fill="#FFF" d="M156 306h200v10H156z"></path><path fill="#D1D7DB" d="M156 336h100v10H156z"></path><path fill="#FFF" d="M156 346h100v10H156z"></path></svg>