<svg xmlns="http://www.w3.org/2000/svg" viewBox="0 0 48 48" id="license"><path fill="#4b31aa" d="M12.83,7.17A4,4,0,0,0,6,10v1a1,1,0,0,0,1,1h6a1,1,0,0,0,1-1V10A4,4,0,0,0,12.83,7.17ZM8,10a2,2,0,0,1,2-2,2,2,0,0,1,2,2Z"></path><path fill="#79a1e8" d="M12,10H8a2,2,0,0,1,2-2,2,2,0,0,1,2,2Z"></path><path fill="#4b31aa" d="M13,36H7a1,1,0,0,0-1,1v1a4,4,0,1,0,8,0V37A1,1,0,0,0,13,36Zm-1.59,3.41A2,2,0,0,1,10,40a2,2,0,0,1-2-2h4A2,2,0,0,1,11.41,39.41Z"></path><path fill="#79a1e8" d="M12,38a2,2,0,0,1-2,2,2,2,0,0,1-2-2Z"></path><path fill="#4b31aa" d="M36,6H10a1,1,0,0,0,0,2,2,2,0,0,1,2,2V38a2,2,0,0,1-2,2,1,1,0,0,0,0,2H36a4,4,0,0,0,4-4V10A4,4,0,0,0,36,6Zm2,32a2,2,0,0,1-2,2H13.46A4,4,0,0,0,14,38V10a4,4,0,0,0-.54-2H36a2,2,0,0,1,2,2Z"></path><path fill="#fff" d="M38,10V38a2,2,0,0,1-2,2H13.46A4,4,0,0,0,14,38V10a4,4,0,0,0-.54-2H36A2,2,0,0,1,38,10Z"></path><path fill="#4b31aa" d="M34,10H18a1,1,0,0,0-1,1v6a1,1,0,0,0,1,1H34a1,1,0,0,0,1-1V11A1,1,0,0,0,34,10Zm-1,6H19V12H33Z"></path><rect width="14" height="4" x="19" y="12" fill="#79a1e8"></rect><path fill="#4b31aa" d="M34 30H18a1 1 0 0 1 0-2H34a1 1 0 0 1 0 2zM34 22H18a1 1 0 0 1 0-2H34a1 1 0 0 1 0 2z"></path><path fill="#d6af0d" d="M29,26H23a1,1,0,0,1,0-2h6a1,1,0,0,1,0,2Z"></path><path fill="#f9d015" d="M32,38a3,3,0,1,1,3-3A3,3,0,0,1,32,38Zm0-4a1,1,0,1,0,1,1A1,1,0,0,0,32,34Z"></path><circle cx="22" cy="14" r="1" fill="#f9d015"></circle><circle cx="26" cy="14" r="1" fill="#f9d015"></circle><circle cx="30" cy="14" r="1" fill="#f9d015"></circle></svg>