<svg xmlns="http://www.w3.org/2000/svg" viewBox="0 0 64 64" id="man"><path fill="#634f5c" d="M12.08,58.16c2.39,1.74,6.89,3.22,15.57,3.22,11.3,0,18.45-3.26,20.59-4.62,1.41-.9,3.57-2.09,3.15-4.05-.9-4.22-6.47-9.91-10.91-12.98a23.234,23.234,0,0,0,5.9-12.16c2.5-12.69-1.23-26.39-18.63-25.11C11.81,3.63,12.48,19.41,13.66,26.34c1.31,7.71,3.16,11.79,6.87,15.97.12.14.24.27.36.4l-.01.01a28.42,28.42,0,0,0-9.57,10.87C10.45,55.39,10.49,57,12.08,58.16Zm15.59-16.5a17.442,17.442,0,0,1-4.07-4.25V37.4a7.931,7.931,0,0,1-1.01-.79,6.783,6.783,0,0,1-.53-.54c-2.32-2.42-3.05-5.52-3.53-9.57-.22-1.32-.19-2.93-.52-5.4L18,20.96a3.356,3.356,0,0,1-.56.04,2.619,2.619,0,0,1-1.94-2.01c-.31-1.68.88-8.95,13.17-8.49,3.86.15,8.03,2.9,9.15,9.09A25.139,25.139,0,0,1,37.3,29.7a18.207,18.207,0,0,1-3.56,6.94h-.01A17.829,17.829,0,0,1,27.67,41.66Z"></path><path fill="#564150" d="M15.02,24.22c.75,9.41,5.517,18.28,12.358,18.28S39.792,34,39.792,24.573,35.125,7.5,26.81,7.5C15.02,7.5,14.27,14.83,15.02,24.22ZM28.57,10.786c3.86.15,7.813,2.614,8.933,8.8a22.643,22.643,0,0,1-.315,9.691A19.765,19.765,0,0,1,33.74,36.64h-.01a24.07,24.07,0,0,1-5.334,4.5,1.184,1.184,0,0,1-1.431-.054A16.543,16.543,0,0,1,23.6,37.41s-.68-.5-1.01-.8a6.783,6.783,0,0,1-.53-.54c-2.32-2.42-3.05-5.52-3.53-9.57-.22-1.32-.19-2.93-.52-5.4L18,20.96a1.437,1.437,0,0,1-.682-.06,2.4,2.4,0,0,1-1.565-1.962C15.32,17.285,16.28,10.326,28.57,10.786Z"></path><path fill="#f9d1b7" d="M18,20.96c.021,0-.027-.41-.006-.413.537-4.349,4.858-7.336,10.031-7.336,4.66,0,8.566,2.753,9.69,6.478.034-.033.072-.066.105-.1A25.139,25.139,0,0,1,37.3,29.7a18.207,18.207,0,0,1-3.56,6.94h-.01a9.345,9.345,0,0,1-4.48,1.97,8.492,8.492,0,0,1-5.65-1.2V37.4a7.931,7.931,0,0,1-1.01-.79,6.783,6.783,0,0,1-.53-.54c-2.32-2.42-3.05-5.52-3.53-9.57-.123-.738-.169-1.574-.242-2.593A7.523,7.523,0,0,1,18,21.878Z"></path><path fill="#934747" d="M37.816,19.59a4.94,4.94,0,0,1-3.59,1.6c-1.21-.09-2.98-.63-4.61-4.52,0,0,.5,2.92-1.16,4.51a5.977,5.977,0,0,1-2.37.84c-3.28.22-5.07-1.97-5.18-5.18.03.52-.14,3.79-2.91,4.12a2.021,2.021,0,0,1-.56.04c-.7-.072-1.62-.34-1.94-2.01s.88-8.95,13.17-8.49C32.526,10.65,36.7,13.4,37.816,19.59Z"></path><path fill="#564150" d="M26.8,46.94c3.037-.232,9.33-4.11,13.68-7.21,4.44,3.07,10.01,8.76,10.91,12.98.42,1.96-1.74,3.15-3.15,4.05-2.14,1.36-9.29,4.62-20.59,4.62-8.68,0-13.18-1.48-15.57-3.22-1.59-1.16-1.63-2.77-.77-4.57a28.42,28.42,0,0,1,9.57-10.87l.01-.01A26.675,26.675,0,0,0,26.8,46.94Z"></path><path fill="#7f3c3c" d="M28.666,10.5c-.728-.027-1.413-.025-2.065,0h.065c3.366.131,6.967,2.238,8.577,6.879a2.838,2.838,0,0,1-1.8,3.664l-.028.008a4.056,4.056,0,0,0,.807.139,4.94,4.94,0,0,0,3.59-1.6C36.7,13.4,32.526,10.65,28.666,10.5Z"></path><path fill="#f7a081" d="M27.586,38.344c2.378-.1,3.851-1.6,5.208-3.016a11.97,11.97,0,0,0,2.894-5.422,26.736,26.736,0,0,0,.307-9.061,6,6,0,0,0,1.821-1.255A25.139,25.139,0,0,1,37.3,29.7a17.646,17.646,0,0,1-3.153,6.4l.01-.008-.065.08c-.117.156-.233.314-.352.466h-.01c-.016.015-.036.027-.052.043a17.34,17.34,0,0,1-5.29,4.535,1.251,1.251,0,0,1-1.414-.076A15.958,15.958,0,0,1,23.6,37.41,6.551,6.551,0,0,0,27.586,38.344Z"></path><path fill="#f9b295" d="M29.379,19.677a3.972,3.972,0,0,0,2.847,1.513,3.487,3.487,0,0,0,1.193-.139c-1.122-.314-2.506-1.286-3.8-4.381A6.924,6.924,0,0,1,29.379,19.677Z"></path><path fill="#fff" d="M34.413 24.786V25.6a.961.961 0 0 1-.97.969h-5.07A.966.966 0 0 1 27.4 25.6V22.847a.969.969 0 0 1 .281-.688.987.987 0 0 1 .688-.281h5.07a.961.961 0 0 1 .97.969zM23.827 24.786V25.6a.961.961 0 0 1-.97.969H17.788a.966.966 0 0 1-.97-.969V22.847a.969.969 0 0 1 .281-.688.988.988 0 0 1 .689-.281h5.069a.961.961 0 0 1 .97.969z"></path><path fill="#f9b295" d="M29.379 19.677a3.972 3.972 0 0 0 2.847 1.513 3.487 3.487 0 0 0 1.193-.139c-1.122-.314-2.506-1.286-3.8-4.381A6.924 6.924 0 0 1 29.379 19.677zM19.811 20.058a4.4 4.4 0 0 0 4.275 1.962 3.34 3.34 0 0 0 .522-.077c-2.342-.439-3.61-2.412-3.7-5.1A4.965 4.965 0 0 1 19.811 20.058z"></path><path fill="#ef6f59" d="M25.792 28.957a1.323 1.323 0 0 1-1.272-1.476.5.5 0 0 1 .977.209.443.443 0 0 0 .192.237.177.177 0 0 0 .185.01.5.5 0 0 1 .424.906A1.2 1.2 0 0 1 25.792 28.957zm-.3-1.24h0zM28.276 32.09h-3.49a.5.5 0 0 1 0-1h3.49a.5.5 0 0 1 0 1z"></path><path fill="#fff" d="M20.936 56.51a.5.5 0 0 1-.5-.5c0-1.318 1.958-8.086 3.17-10.6a4.079 4.079 0 0 1 .666-1.045.5.5 0 1 1 .708.705 3.1 3.1 0 0 0-.475.778 49.155 49.155 0 0 0-3.069 10.16A.5.5 0 0 1 20.936 56.51zM32.247 57.455a.5.5 0 0 1-.541-.449c-.023-.237-.216-1.039-.439-1.969a60.778 60.778 0 0 1-1.655-8.887 10.593 10.593 0 0 1-.016-1.4.5.5 0 1 1 1 .066 9.673 9.673 0 0 0 .017 1.267 60.055 60.055 0 0 0 1.629 8.72c.284 1.182.433 1.812.462 2.1a.5.5 0 0 1-.448.547z"></path><path fill="#564150" d="M33.443 27.07h-5.07A1.471 1.471 0 0 1 26.9 25.6V22.848a1.465 1.465 0 0 1 .427-1.042 1.482 1.482 0 0 1 1.042-.428h5.07a1.453 1.453 0 0 1 1.469 1.47V25.6A1.453 1.453 0 0 1 33.443 27.07zm-5.07-4.692a.486.486 0 0 0-.335.135.472.472 0 0 0-.134.335V25.6a.464.464 0 0 0 .469.469h5.07a.459.459 0 0 0 .469-.469V22.848a.459.459 0 0 0-.469-.47zM22.857 27.07h-5.07A1.471 1.471 0 0 1 16.318 25.6V22.848a1.465 1.465 0 0 1 .427-1.042 1.482 1.482 0 0 1 1.042-.428h5.07a1.453 1.453 0 0 1 1.47 1.47V25.6A1.453 1.453 0 0 1 22.857 27.07zm-5.07-4.692a.481.481 0 0 0-.334.135.469.469 0 0 0-.135.335V25.6a.464.464 0 0 0 .469.469h5.07a.459.459 0 0 0 .47-.469V22.848a.46.46 0 0 0-.47-.47z"></path><path fill="#564150" d="M34.412 24.952a.5.5 0 0 1-.1-.99l3.7-.729a.5.5 0 1 1 .194.981l-3.7.728A.463.463 0 0 1 34.412 24.952zM27.4 25.073H23.827a.5.5 0 0 1 0-1H27.4a.5.5 0 1 1 0 1z"></path></svg>